name ./resultDataOpenSim/trcMotMarkerGrf/sub10/grf-03-04.mot
datacolumns 19
datarows 27
range 1.56000000 1.66400000
endheader

                time	     ground_force_vx	     ground_force_vy	     ground_force_vz	     ground_force_px	     ground_force_py	     ground_force_pz	   l_ground_force_vx	   l_ground_force_vy	   l_ground_force_vz	   l_ground_force_px	   l_ground_force_py	   l_ground_force_pz	     ground_torque_x	     ground_torque_y	     ground_torque_z	   l_ground_torque_x	   l_ground_torque_y	   l_ground_torque_z	
          1.56000000	        -24.95495801	        437.64784417	        -16.58892490	          0.78144870	          0.00000000	          0.01901270	          0.00000000	          0.00000000	          0.00000000	          0.00000000	          0.00000000	          0.00000000	          0.00000000	          1.50534866	          0.00000000	          0.00000000	          0.00000000	          0.00000000	
          1.56400000	        -21.72448088	        432.21166638	        -14.90997942	          0.78227020	          0.00000000	          0.01900981	          0.00000000	          0.00000000	          0.00000000	          0.00000000	          0.00000000	          0.00000000	          0.00000000	          1.53296306	          0.00000000	          0.00000000	          0.00000000	          0.00000000	
          1.56800000	        -19.34309137	        427.46557097	        -13.24007800	          0.78320565	          0.00000000	          0.01900453	          0.00000000	          0.00000000	          0.00000000	          0.00000000	          0.00000000	          0.00000000	          0.00000000	          1.55305944	          0.00000000	          0.00000000	          0.00000000	          0.00000000	
          1.57200000	        -17.92648374	        423.37668064	        -11.78967490	          0.78428233	          0.00000000	          0.01899549	          0.00000000	          0.00000000	          0.00000000	          0.00000000	          0.00000000	          0.00000000	          0.00000000	          1.58255822	          0.00000000	          0.00000000	          0.00000000	          0.00000000	
          1.57600000	        -17.36612978	        419.89924441	        -10.72338725	          0.78549721	          0.00000000	          0.01898615	          0.00000000	          0.00000000	          0.00000000	          0.00000000	          0.00000000	          0.00000000	          0.00000000	          1.63489717	          0.00000000	          0.00000000	          0.00000000	          0.00000000	
          1.58000000	        -17.35742962	        416.98836347	        -10.13040981	          0.78680526	          0.00000000	          0.01898688	          0.00000000	          0.00000000	          0.00000000	          0.00000000	          0.00000000	          0.00000000	          0.00000000	          1.71784332	          0.00000000	          0.00000000	          0.00000000	          0.00000000	
          1.58400000	        -17.47536505	        414.61237367	        -10.01413808	          0.78812000	          0.00000000	          0.01901184	          0.00000000	          0.00000000	          0.00000000	          0.00000000	          0.00000000	          0.00000000	          0.00000000	          1.83244226	          0.00000000	          0.00000000	          0.00000000	          0.00000000	
          1.58800000	        -17.28235951	        412.75681650	        -10.30166556	          0.78935440	          0.00000000	          0.01906777	          0.00000000	          0.00000000	          0.00000000	          0.00000000	          0.00000000	          0.00000000	          0.00000000	          1.97322265	          0.00000000	          0.00000000	          0.00000000	          0.00000000	
          1.59200000	        -16.44233979	        411.41097534	        -10.86755356	          0.79044562	          0.00000000	          0.01915157	          0.00000000	          0.00000000	          0.00000000	          0.00000000	          0.00000000	          0.00000000	          0.00000000	          2.12966486	          0.00000000	          0.00000000	          0.00000000	          0.00000000	
          1.59600000	        -14.80790850	        410.54055541	        -11.56323011	          0.79135576	          0.00000000	          0.01925659	          0.00000000	          0.00000000	          0.00000000	          0.00000000	          0.00000000	          0.00000000	          0.00000000	          2.28872517	          0.00000000	          0.00000000	          0.00000000	          0.00000000	
          1.60000000	        -12.45273013	        410.08110035	        -12.24509997	          0.79207661	          0.00000000	          0.01937562	          0.00000000	          0.00000000	          0.00000000	          0.00000000	          0.00000000	          0.00000000	          0.00000000	          2.43789267	          0.00000000	          0.00000000	          0.00000000	          0.00000000	
          1.60400000	         -9.63901581	        409.96994828	        -12.79790959	          0.79261100	          0.00000000	          0.01950973	          0.00000000	          0.00000000	          0.00000000	          0.00000000	          0.00000000	          0.00000000	          0.00000000	          2.56798601	          0.00000000	          0.00000000	          0.00000000	          0.00000000	
          1.60800000	         -6.73021476	        410.18417133	        -13.15259798	          0.79301087	          0.00000000	          0.01965680	          0.00000000	          0.00000000	          0.00000000	          0.00000000	          0.00000000	          0.00000000	          0.00000000	          2.67488206	          0.00000000	          0.00000000	          0.00000000	          0.00000000	
          1.61200000	         -4.07751751	        410.75261789	        -13.29693491	          0.79334802	          0.00000000	          0.01980754	          0.00000000	          0.00000000	          0.00000000	          0.00000000	          0.00000000	          0.00000000	          0.00000000	          2.75974286	          0.00000000	          0.00000000	          0.00000000	          0.00000000	
          1.61600000	         -1.91868841	        411.74651654	        -13.27428691	          0.79367612	          0.00000000	          0.01995116	          0.00000000	          0.00000000	          0.00000000	          0.00000000	          0.00000000	          0.00000000	          0.00000000	          2.82792999	          0.00000000	          0.00000000	          0.00000000	          0.00000000	
          1.62000000	         -0.31850623	        413.26038484	        -13.16818838	          0.79401582	          0.00000000	          0.02007865	          0.00000000	          0.00000000	          0.00000000	          0.00000000	          0.00000000	          0.00000000	          0.00000000	          2.88726298	          0.00000000	          0.00000000	          0.00000000	          0.00000000	
          1.62400000	          0.83924795	        415.38609520	        -13.07777104	          0.79435681	          0.00000000	          0.02018386	          0.00000000	          0.00000000	          0.00000000	          0.00000000	          0.00000000	          0.00000000	          0.00000000	          2.94629020	          0.00000000	          0.00000000	          0.00000000	          0.00000000	
          1.62800000	          1.81542064	        418.18708866	        -13.09263092	          0.79467741	          0.00000000	          0.02026440	          0.00000000	          0.00000000	          0.00000000	          0.00000000	          0.00000000	          0.00000000	          0.00000000	          3.01290429	          0.00000000	          0.00000000	          0.00000000	          0.00000000	
          1.63200000	          2.94466251	        421.68053887	        -13.27442302	          0.79495157	          0.00000000	          0.02031904	          0.00000000	          0.00000000	          0.00000000	          0.00000000	          0.00000000	          0.00000000	          0.00000000	          3.09330476	          0.00000000	          0.00000000	          0.00000000	          0.00000000	
          1.63600000	          4.54037248	        425.83710698	        -13.65035982	          0.79514642	          0.00000000	          0.02035281	          0.00000000	          0.00000000	          0.00000000	          0.00000000	          0.00000000	          0.00000000	          0.00000000	          3.19122505	          0.00000000	          0.00000000	          0.00000000	          0.00000000	
          1.64000000	          6.80233965	        430.60637239	        -14.21760180	          0.79523212	          0.00000000	          0.02037348	          0.00000000	          0.00000000	          0.00000000	          0.00000000	          0.00000000	          0.00000000	          0.00000000	          3.30747479	          0.00000000	          0.00000000	          0.00000000	          0.00000000	
          1.64400000	          9.75914854	        435.95180668	        -14.95193684	          0.79521454	          0.00000000	          0.02039228	          0.00000000	          0.00000000	          0.00000000	          0.00000000	          0.00000000	          0.00000000	          0.00000000	          3.43997820	          0.00000000	          0.00000000	          0.00000000	          0.00000000	
          1.64800000	         13.26044870	        441.87091716	        -15.81587176	          0.79514628	          0.00000000	          0.02041770	          0.00000000	          0.00000000	          0.00000000	          0.00000000	          0.00000000	          0.00000000	          0.00000000	          3.58441002	          0.00000000	          0.00000000	          0.00000000	          0.00000000	
          1.65200000	         17.01728435	        448.39251168	        -16.76360367	          0.79510363	          0.00000000	          0.02044322	          0.00000000	          0.00000000	          0.00000000	          0.00000000	          0.00000000	          0.00000000	          0.00000000	          3.73526025	          0.00000000	          0.00000000	          0.00000000	          0.00000000	
          1.65600000	         20.67591853	        455.55457719	        -17.74265539	          0.79516280	          0.00000000	          0.02045310	          0.00000000	          0.00000000	          0.00000000	          0.00000000	          0.00000000	          0.00000000	          0.00000000	          3.88692514	          0.00000000	          0.00000000	          0.00000000	          0.00000000	
          1.66000000	         23.90348016	        463.37957427	        -18.69723398	          0.79538633	          0.00000000	          0.02043699	          0.00000000	          0.00000000	          0.00000000	          0.00000000	          0.00000000	          0.00000000	          0.00000000	          4.03444631	          0.00000000	          0.00000000	          0.00000000	          0.00000000	
          1.66400000	         26.46256206	        471.86244915	        -19.57752969	          0.79581627	          0.00000000	          0.02039000	          0.00000000	          0.00000000	          0.00000000	          0.00000000	          0.00000000	          0.00000000	          0.00000000	          4.17380908	          0.00000000	          0.00000000	          0.00000000	          0.00000000	
